<svg xmlns="http://www.w3.org/2000/svg" width="600" height="400" viewBox="0 0 600 400" fill="none">
  <!-- 背景 -->
  <rect width="600" height="400" rx="12" fill="#F8F9FA"/>
  
  <!-- 团队成员图形 -->
  <g>
    <!-- 成员1 -->
    <g transform="translate(150, 180)">
      <circle cx="0" cy="-40" r="40" fill="#3498DB"/>
      <rect x="-30" y="0" width="60" height="80" rx="10" fill="#2ECC71"/>
      <!-- 人物图标 -->
      <path d="M-10,-30 L10,-30 M-15,-15 L15,-15" stroke="white" stroke-width="3" stroke-linecap="round"/>
      <circle cx="0" cy="-25" r="2" fill="white"/>
    </g>
    
    <!-- 成员2 -->
    <g transform="translate(250, 160)">
      <circle cx="0" cy="-40" r="40" fill="#E74C3C"/>
      <rect x="-30" y="0" width="60" height="80" rx="10" fill="#F39C12"/>
      <!-- 人物图标 -->
      <path d="M-10,-30 L10,-30 M-15,-15 L15,-15" stroke="white" stroke-width="3" stroke-linecap="round"/>
      <circle cx="0" cy="-25" r="2" fill="white"/>
    </g>
    
    <!-- 成员3 -->
    <g transform="translate(350, 180)">
      <circle cx="0" cy="-40" r="40" fill="#9B59B6"/>
      <rect x="-30" y="0" width="60" height="80" rx="10" fill="#1ABC9C"/>
      <!-- 人物图标 -->
      <path d="M-10,-30 L10,-30 M-15,-15 L15,-15" stroke="white" stroke-width="3" stroke-linecap="round"/>
      <circle cx="0" cy="-25" r="2" fill="white"/>
    </g>
    
    <!-- 连接线条 -->
    <path d="M150,200 L250,180" stroke="#34495E" stroke-width="3" stroke-dasharray="5,5"/>
    <path d="M250,200 L350,200" stroke="#34495E" stroke-width="3" stroke-dasharray="5,5"/>
  </g>
  
  <!-- 团队协作图标 -->
  <g transform="translate(300, 100)">
    <circle cx="0" cy="0" r="40" fill="white" stroke="#3498DB" stroke-width="4"/>
    <path d="M-20,-20 L20,20 M-20,20 L20,-20" stroke="#3498DB" stroke-width="4" stroke-linecap="round"/>
  </g>
  
  <!-- 装饰元素 -->
  <g opacity="0.1">
    <circle cx="500" cy="80" r="60" stroke="#34495E" stroke-width="6" fill="none"/>
    <circle cx="100" cy="320" r="50" stroke="#34495E" stroke-width="4" fill="none"/>
    <rect x="400" y="250" width="150" height="100" rx="5" stroke="#34495E" stroke-width="3" fill="none"/>
  </g>
</svg>