<svg xmlns="http://www.w3.org/2000/svg" width="600" height="400" viewBox="0 0 600 400" fill="none">
  <!-- 背景 -->
  <rect width="600" height="400" rx="12" fill="#F8F9FA"/>
  
  <!-- 主图形元素 -->
  <g opacity="0.9">
    <path d="M250,100 C250,100 280,140 280,200 C280,260 330,280 350,320 C370,360 420,340 420,280 C420,220 370,180 350,140 C330,100 380,80 400,100 C420,120 420,180 400,220 C380,260 330,300 310,340 C290,380 230,340 230,280 C230,220 270,180 290,140 C310,100 250,120 250,100 Z" fill="#3498DB"/>
    
    <!-- 装饰圆圈 -->
    <circle cx="180" cy="200" r="40" fill="#2ECC71"/>
    <circle cx="420" cy="200" r="30" fill="#E74C3C"/>
    <circle cx="300" cy="320" r="25" fill="#F39C12"/>
    <circle cx="300" cy="80" r="20" fill="#9B59B6"/>
    
    <!-- 连接线 -->
    <path d="M180,200 L280,200" stroke="#34495E" stroke-width="3" stroke-dasharray="5,5"/>
    <path d="M350,140 L420,200" stroke="#34495E" stroke-width="3" stroke-dasharray="5,5"/>
    <path d="M350,320 L300,320" stroke="#34495E" stroke-width="3" stroke-dasharray="5,5"/>
  </g>
  
  <!-- 图标元素 -->
  <g transform="translate(300, 200) scale(1.5)">
    <rect x="-25" y="-25" width="50" height="50" rx="5" fill="white"/>
    <path d="M-15,-15 L15,15 M-15,15 L15,-15" stroke="#3498DB" stroke-width="4" stroke-linecap="round"/>
  </g>
  
  <!-- 装饰元素 -->
  <g opacity="0.2">
    <path d="M50,50 L550,50 L550,350 L50,350 Z" stroke="#34495E" stroke-width="8" fill="none"/>
    <path d="M100,100 L500,100 L500,300 L100,300 Z" stroke="#34495E" stroke-width="4" fill="none"/>
  </g>
</svg>