<svg xmlns="http://www.w3.org/2000/svg" width="600" height="400" viewBox="0 0 600 400" fill="none">
  <!-- 背景 -->
  <rect width="600" height="400" rx="12" fill="#F8F9FA"/>
  
  <!-- 产品服务图形 -->
  <g>
    <!-- 服务项目1 -->
    <g transform="translate(150, 150)">
      <rect x="-50" y="-30" width="100" height="100" rx="10" fill="#3498DB"/>
      <!-- 服务图标 -->
      <path d="M-30,0 L-20,-20 L-10,0 M0,-30 L0,30 M10,0 L20,-20 L30,0" stroke="white" stroke-width="4" stroke-linecap="round" stroke-linejoin="round"/>
    </g>
    
    <!-- 服务项目2 -->
    <g transform="translate(300, 250)">
      <rect x="-50" y="-30" width="100" height="100" rx="10" fill="#2ECC71"/>
      <!-- 服务图标 -->
      <path d="M-30,0 L30,0 M-20,-20 L20,20 M-20,20 L20,-20" stroke="white" stroke-width="4" stroke-linecap="round"/>
    </g>
    
    <!-- 服务项目3 -->
    <g transform="translate(450, 150)">
      <rect x="-50" y="-30" width="100" height="100" rx="10" fill="#E74C3C"/>
      <!-- 服务图标 -->
      <path d="M-30,-20 L-30,20 L30,-20 L30,20 M-30,0 L30,0" stroke="white" stroke-width="4" stroke-linecap="round"/>
    </g>
  </g>
  
  <!-- 中心图标 -->
  <g transform="translate(300, 100)">
    <circle cx="0" cy="0" r="40" fill="white" stroke="#F39C12" stroke-width="4"/>
    <path d="M-20,-10 L20,-10 L20,10 L-20,10 Z M-10,-20 L10,-20 L10,20 L-10,20 Z" fill="#F39C12"/>
  </g>
  
  <!-- 装饰线条 -->
  <path d="M100,40 L500,40" stroke="#34495E" stroke-width="2" stroke-dasharray="10,5" opacity="0.5"/>
  <path d="M100,360 L500,360" stroke="#34495E" stroke-width="2" stroke-dasharray="10,5" opacity="0.5"/>
  
  <!-- 装饰元素 -->
  <g opacity="0.1">
    <circle cx="50" cy="50" r="40" fill="#34495E"/>
    <circle cx="550" cy="350" r="50" fill="#34495E"/>
  </g>
</svg>